<?xml version="1.0" encoding="UTF-8"?>
<svg id="Layer_1" data-name="Layer 1" xmlns="http://www.w3.org/2000/svg" viewBox="0 0 563.23 60.39">
  <defs>
    <style>
      .cls-1 {
        fill: #a23e00;
      }
    </style>
  </defs>
  <rect class="cls-1" x="311.23" y="14.51" width="2" height="32.33"/>
  <g>
    <path class="cls-1" d="M26.25,15.18c5.98,0,10.38,3.56,10.38,8.39,0,3.82-2.75,6.8-6.55,7.26,4.65.43,7.91,3.65,7.91,7.99,0,5.11-4.51,8.69-10.94,8.69H10.53V15.18h15.73ZM31.92,24.18c0-2.86-2.23-4.59-5.92-4.59h-10.72v9.55h10.75c3.52,0,5.89-2,5.89-4.96ZM26.38,43.11c4.62,0,6.91-1.62,6.91-4.91s-2.26-4.87-6.9-4.87h-11.11v9.78h11.1Z"/>
    <path class="cls-1" d="M40.39,47.52l12.05-32.34h7.12l11.9,32.34h-5.04l-2.95-8.11h-15.15l-3,8.11h-4.93ZM61.9,35.12l-5.95-16.35-6.05,16.35h12Z"/>
    <path class="cls-1" d="M75.27,47.52V15.18h15.65c6.44,0,10.94,3.92,10.94,9.52,0,4.99-3.55,8.28-8.97,8.43,2.39.19,4.26,1.94,5.66,5.08l4.17,9.31h-5.21l-4.16-9.29c-1.1-2.44-2.65-3.28-6.39-3.28h-6.95v12.57h-4.75ZM90.31,30.54c4.26,0,6.81-2.09,6.81-5.6s-2.45-5.35-6.83-5.35h-10.27v10.94h10.29Z"/>
    <path class="cls-1" d="M107.39,47.52V15.18h15.65c6.44,0,10.94,3.92,10.94,9.52,0,4.99-3.55,8.28-8.97,8.43,2.39.19,4.26,1.94,5.66,5.08l4.17,9.31h-5.21l-4.16-9.29c-1.1-2.44-2.65-3.28-6.39-3.28h-6.95v12.57h-4.75ZM122.42,30.54c4.26,0,6.81-2.09,6.81-5.6s-2.45-5.35-6.83-5.35h-10.27v10.94h10.29Z"/>
    <path class="cls-1" d="M137.98,47.52l12.05-32.34h7.12l11.9,32.34h-5.04l-2.95-8.11h-15.15l-3,8.11h-4.93ZM159.48,35.12l-5.95-16.35-6.05,16.35h12Z"/>
    <path class="cls-1" d="M201.56,47.52h-7.71l-16.36-29.3v29.3h-4.64V15.18h8.39l15.68,28.09V15.18h4.64v32.34Z"/>
    <path class="cls-1" d="M221.81,43.79c5.31,0,8.68-3.04,9.79-8.82h4.75c-1.36,8.25-6.82,13.23-14.55,13.23-9.06,0-15.24-6.83-15.24-16.85s6.18-16.85,15.24-16.85c7.73,0,13.19,4.97,14.55,13.23h-4.75c-1.11-5.78-4.48-8.82-9.79-8.82-6.56,0-10.5,4.67-10.5,12.44s3.95,12.44,10.5,12.44Z"/>
    <path class="cls-1" d="M237.89,47.52l12.05-32.34h7.12l11.9,32.34h-5.04l-2.95-8.11h-15.15l-3,8.11h-4.93ZM259.4,35.12l-5.95-16.35-6.05,16.35h12Z"/>
    <path class="cls-1" d="M297.31,24.93h-4.64c0-3.75-3.32-6.13-8.14-6.13-4.05,0-8.27,1.67-8.27,5.39,0,3.26,3.23,3.8,8.37,4.58l1.67.25c5.48.83,12.18,1.87,12.18,9.2,0,6.72-5.6,9.97-13.52,9.97-8.68,0-13.9-3.92-13.9-10.72h4.64c0,4.03,3.55,6.42,9.19,6.42,4.85,0,8.94-1.76,8.94-5.77,0-3.58-3.3-4.12-7.9-4.82l-2.1-.32c-5.54-.84-12.2-1.81-12.2-8.71,0-6.48,5.88-9.79,12.94-9.79,7.72,0,12.74,3.97,12.74,10.42Z"/>
  </g>
  <g>
    <g>
      <path class="cls-1" d="M326.12,14.51h15.46c7.58,0,12.74,4.47,12.74,10.98s-5.19,11-12.74,11h-7.11v10.36h-8.34V14.51ZM341.2,29.84c3.01,0,4.78-1.61,4.78-4.35s-1.76-4.33-4.75-4.33h-6.76v8.68h6.73Z"/>
      <path class="cls-1" d="M357.89,46.84V14.49h16.16c7.68,0,12.06,3.75,12.06,9.9,0,5.35-3.5,8.83-8.98,9.01,2.63.18,4.67,1.9,6.11,5.1l3.74,8.33h-9.28l-3.81-8.32c-1.19-2.6-1.97-3.23-4.09-3.23h-3.56v11.56h-8.34ZM373.13,28.84c2.94,0,4.62-1.41,4.62-3.9s-1.65-3.8-4.64-3.8h-6.89v7.7h6.9Z"/>
      <path class="cls-1" d="M413.14,14.51v6.92h-14.25v6.05h12.96v6.44h-12.96v6h14.63v6.92h-22.98V14.51h22.59Z"/>
      <path class="cls-1" d="M456,14.51v32.34h-8.34v-25.34l-7.15,25.34h-8.37l-7.1-25.35v25.35h-7.96V14.51h13.16l6.52,23.31,6.56-23.31h12.67Z"/>
      <path class="cls-1" d="M468.59,46.84h-8.34V14.51h8.34v32.34Z"/>
      <path class="cls-1" d="M472.61,14.51h8.34v18.7c0,5.13,2.08,7.33,5.92,7.33s5.92-2.19,5.92-7.33V14.51h8.34v19.45c0,8.72-5.9,13.57-14.27,13.57s-14.27-4.85-14.27-13.57V14.51Z"/>
      <path class="cls-1" d="M544.09,14.51v32.34h-8.34v-25.34l-7.15,25.34h-8.37l-7.1-25.35v25.35h-7.96V14.51h13.16l6.52,23.31,6.56-23.31h12.67Z"/>
    </g>
    <path class="cls-1" d="M557.11,16.17c0,2.08-1.58,3.69-3.61,3.69s-3.59-1.59-3.59-3.65,1.58-3.67,3.63-3.67,3.58,1.57,3.58,3.63ZM550.43,16.21c0,1.81,1.31,3.17,3.05,3.17s3.09-1.38,3.09-3.22-1.29-3.13-3.05-3.13-3.1,1.36-3.1,3.18ZM552.21,17.92v-3.38h1.61c.69,0,1.17.4,1.17.98,0,.52-.38.87-.95.89.25.02.46.21.61.54l.44.97h-.56l-.43-.91c-.12-.26-.31-.38-.61-.38h-.74v1.29h-.53ZM553.68,16.13c.48,0,.79-.22.79-.55s-.29-.53-.78-.53h-.95v1.08h.94Z"/>
  </g>
</svg>