<?xml version="1.0" encoding="UTF-8"?>
<svg id="Layer_1" data-name="Layer 1" xmlns="http://www.w3.org/2000/svg" viewBox="0 0 237.16 57.29">
  <defs>
    <style>
      .cls-1 {
        fill: #a23e00;
      }
    </style>
  </defs>
  <g>
    <g>
      <path class="cls-1" d="M6.05,20.35h15.46c7.58,0,12.74,4.47,12.74,10.98s-5.19,11-12.74,11h-7.11v10.36H6.05V20.35ZM21.12,35.68c3.01,0,4.78-1.61,4.78-4.35s-1.76-4.33-4.75-4.33h-6.76v8.68h6.73Z"/>
      <path class="cls-1" d="M37.82,52.69V20.34h16.16c7.68,0,12.06,3.75,12.06,9.9,0,5.35-3.5,8.83-8.98,9.01,2.63.18,4.67,1.9,6.11,5.1l3.74,8.33h-9.28l-3.81-8.32c-1.19-2.6-1.97-3.23-4.09-3.23h-3.56v11.56h-8.34ZM53.06,34.69c2.94,0,4.62-1.41,4.62-3.9s-1.65-3.8-4.64-3.8h-6.89v7.7h6.9Z"/>
      <path class="cls-1" d="M93.07,20.35v6.92h-14.25v6.05h12.96v6.44h-12.96v6h14.63v6.92h-22.98V20.35h22.59Z"/>
      <path class="cls-1" d="M135.93,20.35v32.34h-8.34v-25.34l-7.15,25.34h-8.37l-7.1-25.35v25.35h-7.96V20.35h13.16l6.52,23.31,6.56-23.31h12.67Z"/>
      <path class="cls-1" d="M148.51,52.69h-8.34V20.35h8.34v32.34Z"/>
      <path class="cls-1" d="M152.54,20.35h8.34v18.7c0,5.13,2.08,7.33,5.92,7.33s5.92-2.19,5.92-7.33v-18.7h8.34v19.45c0,8.72-5.9,13.57-14.27,13.57s-14.27-4.85-14.27-13.57v-19.45Z"/>
      <path class="cls-1" d="M224.01,20.35v32.34h-8.34v-25.34l-7.15,25.34h-8.37l-7.1-25.35v25.35h-7.96V20.35h13.16l6.52,23.31,6.56-23.31h12.67Z"/>
    </g>
    <path class="cls-1" d="M235.25,22.02c0,2.08-1.58,3.69-3.61,3.69s-3.59-1.59-3.59-3.65,1.58-3.67,3.63-3.67,3.58,1.57,3.58,3.63ZM228.58,22.05c0,1.81,1.31,3.17,3.05,3.17s3.09-1.38,3.09-3.22-1.29-3.13-3.05-3.13-3.1,1.36-3.1,3.18ZM230.36,23.77v-3.38h1.61c.69,0,1.17.4,1.17.98,0,.52-.38.87-.95.89.25.02.46.21.61.54l.44.97h-.56l-.43-.91c-.12-.26-.31-.38-.61-.38h-.74v1.29h-.53ZM231.82,21.98c.48,0,.79-.22.79-.55s-.29-.53-.78-.53h-.95v1.08h.94Z"/>
  </g>
  <g>
    <path class="cls-1" d="M12.22,4.24c2.09,0,3.63,1.24,3.63,2.93,0,1.34-.96,2.38-2.29,2.54,1.62.15,2.77,1.28,2.77,2.79,0,1.79-1.58,3.04-3.83,3.04h-5.78V4.24h5.5ZM14.2,7.38c0-1-.78-1.6-2.07-1.6h-3.75v3.34h3.76c1.23,0,2.06-.7,2.06-1.73ZM12.26,14c1.62,0,2.41-.56,2.41-1.71s-.79-1.7-2.41-1.7h-3.88v3.42h3.88Z"/>
    <path class="cls-1" d="M17.96,15.54l4.21-11.3h2.49l4.16,11.3h-1.76l-1.03-2.83h-5.3l-1.05,2.83h-1.72ZM25.48,11.21l-2.08-5.71-2.11,5.71h4.19Z"/>
    <path class="cls-1" d="M30.95,15.54V4.24h5.47c2.25,0,3.83,1.37,3.83,3.33,0,1.74-1.24,2.89-3.13,2.95.83.07,1.49.68,1.98,1.77l1.46,3.25h-1.82l-1.45-3.25c-.38-.85-.92-1.15-2.23-1.15h-2.43v4.39h-1.66ZM36.2,9.61c1.49,0,2.38-.73,2.38-1.96s-.86-1.87-2.39-1.87h-3.59v3.83h3.6Z"/>
    <path class="cls-1" d="M42.97,15.54V4.24h5.47c2.25,0,3.83,1.37,3.83,3.33,0,1.74-1.24,2.89-3.13,2.95.83.07,1.49.68,1.98,1.77l1.46,3.25h-1.82l-1.45-3.25c-.38-.85-.92-1.15-2.23-1.15h-2.43v4.39h-1.66ZM48.23,9.61c1.49,0,2.38-.73,2.38-1.96s-.86-1.87-2.39-1.87h-3.59v3.83h3.6Z"/>
    <path class="cls-1" d="M54.46,15.54l4.21-11.3h2.49l4.16,11.3h-1.76l-1.03-2.83h-5.3l-1.05,2.83h-1.72ZM61.98,11.21l-2.08-5.71-2.11,5.71h4.19Z"/>
    <path class="cls-1" d="M77.49,15.54h-2.7l-5.72-10.24v10.24h-1.62V4.24h2.93l5.48,9.82V4.24h1.62v11.3Z"/>
    <path class="cls-1" d="M85.36,14.24c1.86,0,3.04-1.06,3.42-3.08h1.66c-.47,2.88-2.38,4.62-5.09,4.62-3.17,0-5.33-2.39-5.33-5.89s2.16-5.89,5.33-5.89c2.7,0,4.61,1.74,5.09,4.62h-1.66c-.39-2.02-1.56-3.08-3.42-3.08-2.29,0-3.67,1.63-3.67,4.35s1.38,4.35,3.67,4.35Z"/>
    <path class="cls-1" d="M91.78,15.54l4.21-11.3h2.49l4.16,11.3h-1.76l-1.03-2.83h-5.3l-1.05,2.83h-1.72ZM99.3,11.21l-2.08-5.71-2.11,5.71h4.19Z"/>
    <path class="cls-1" d="M113.35,7.65h-1.62c0-1.31-1.16-2.14-2.85-2.14-1.42,0-2.89.58-2.89,1.89,0,1.14,1.13,1.33,2.92,1.6l.58.09c1.92.29,4.26.65,4.26,3.22,0,2.35-1.96,3.49-4.73,3.49-3.04,0-4.86-1.37-4.86-3.75h1.62c0,1.41,1.24,2.24,3.21,2.24,1.7,0,3.13-.62,3.13-2.02,0-1.25-1.15-1.44-2.76-1.68l-.74-.11c-1.94-.29-4.26-.63-4.26-3.04,0-2.26,2.05-3.42,4.52-3.42,2.7,0,4.45,1.39,4.45,3.64Z"/>
  </g>
  <rect class="cls-1" x="119.42" y="9.47" width="104.59" height="1.41"/>
</svg>