<svg xmlns="http://www.w3.org/2000/svg" xmlns:xlink="http://www.w3.org/1999/xlink" width="1080" zoomAndPan="magnify" viewBox="0 0 810 225" height="300" preserveAspectRatio="xMidYMid meet" version="1.0"><defs><g/><clipPath id="ffbe0c3ed1"><path d="M 266 0.398438 L 304 0.398438 L 304 43 L 266 43 Z M 266 0.398438 " clip-rule="nonzero"/></clipPath><clipPath id="b80cd1af41"><path d="M 352 0.398438 L 387 0.398438 L 387 43 L 352 43 Z M 352 0.398438 " clip-rule="nonzero"/></clipPath><clipPath id="30e6b1dead"><rect x="0" width="25" y="0" height="27"/></clipPath><clipPath id="ac66d2ae44"><rect x="0" width="810" y="0" height="205"/></clipPath></defs><g transform="matrix(1, 0, 0, 1, 0, 20)"><g clip-path="url(#ac66d2ae44)"><g fill="#000000" fill-opacity="1"><g transform="translate(2.946881, 42.119192)"><g><path d="M 2.40625 -40.46875 L 22.078125 -40.46875 C 23.578125 -40.46875 24.984375 -40.296875 26.296875 -39.953125 C 27.617188 -39.617188 28.816406 -39.140625 29.890625 -38.515625 C 30.960938 -37.890625 31.882812 -37.140625 32.65625 -36.265625 C 33.425781 -35.398438 34.019531 -34.4375 34.4375 -33.375 C 34.863281 -32.3125 35.078125 -31.175781 35.078125 -29.96875 C 35.078125 -28.769531 34.875 -27.648438 34.46875 -26.609375 C 34.0625 -25.578125 33.492188 -24.65625 32.765625 -23.84375 C 32.035156 -23.039062 31.171875 -22.378906 30.171875 -21.859375 C 29.171875 -21.347656 28.070312 -21.023438 26.875 -20.890625 C 28.332031 -20.753906 29.664062 -20.410156 30.875 -19.859375 C 32.09375 -19.316406 33.140625 -18.601562 34.015625 -17.71875 C 34.898438 -16.832031 35.582031 -15.8125 36.0625 -14.65625 C 36.539062 -13.5 36.78125 -12.238281 36.78125 -10.875 C 36.78125 -9.59375 36.566406 -8.394531 36.140625 -7.28125 C 35.710938 -6.175781 35.09375 -5.175781 34.28125 -4.28125 C 33.476562 -3.382812 32.515625 -2.617188 31.390625 -1.984375 C 30.265625 -1.347656 29.003906 -0.859375 27.609375 -0.515625 C 26.210938 -0.171875 24.707031 0 23.09375 0 L 2.40625 0 Z M 21.796875 -22.984375 C 22.898438 -22.984375 23.898438 -23.128906 24.796875 -23.421875 C 25.703125 -23.722656 26.476562 -24.148438 27.125 -24.703125 C 27.78125 -25.253906 28.285156 -25.910156 28.640625 -26.671875 C 28.992188 -27.429688 29.171875 -28.273438 29.171875 -29.203125 C 29.171875 -30.398438 28.875 -31.425781 28.28125 -32.28125 C 27.6875 -33.132812 26.835938 -33.789062 25.734375 -34.25 C 24.628906 -34.71875 23.304688 -34.953125 21.765625 -34.953125 L 8.34375 -34.953125 L 8.34375 -22.984375 Z M 8.34375 -5.515625 L 22.234375 -5.515625 C 28.003906 -5.515625 30.890625 -7.5625 30.890625 -11.65625 C 30.890625 -13.71875 30.175781 -15.25 28.75 -16.25 C 27.320312 -17.25 25.15625 -17.75 22.25 -17.75 L 8.34375 -17.75 Z M 8.34375 -5.515625 "/></g></g></g><g fill="#000000" fill-opacity="1"><g transform="translate(44.894614, 42.119192)"><g><path d="M 6.65625 0 L 0.5 0 L 15.578125 -40.46875 L 24.484375 -40.46875 L 39.375 0 L 33.0625 0 L 29.375 -10.140625 L 10.40625 -10.140625 Z M 12.390625 -15.515625 L 27.40625 -15.515625 L 19.96875 -35.984375 Z M 12.390625 -15.515625 "/></g></g></g><g fill="#000000" fill-opacity="1"><g transform="translate(89.289879, 42.119192)"><g><path d="M 8.34375 0 L 2.40625 0 L 2.40625 -40.46875 L 21.984375 -40.46875 C 23.597656 -40.46875 25.101562 -40.28125 26.5 -39.90625 C 27.894531 -39.53125 29.15625 -38.988281 30.28125 -38.28125 C 31.40625 -37.582031 32.367188 -36.742188 33.171875 -35.765625 C 33.984375 -34.785156 34.601562 -33.6875 35.03125 -32.46875 C 35.46875 -31.257812 35.6875 -29.953125 35.6875 -28.546875 C 35.6875 -26.992188 35.421875 -25.578125 34.890625 -24.296875 C 34.359375 -23.023438 33.597656 -21.925781 32.609375 -21 C 31.628906 -20.082031 30.453125 -19.363281 29.078125 -18.84375 C 27.703125 -18.320312 26.164062 -18.039062 24.46875 -18 C 25.957031 -17.875 27.289062 -17.273438 28.46875 -16.203125 C 29.644531 -15.128906 30.671875 -13.609375 31.546875 -11.640625 L 36.765625 0 L 30.25 0 L 25.046875 -11.625 C 24.703125 -12.394531 24.304688 -13.039062 23.859375 -13.5625 C 23.421875 -14.082031 22.894531 -14.503906 22.28125 -14.828125 C 21.664062 -15.148438 20.929688 -15.378906 20.078125 -15.515625 C 19.222656 -15.660156 18.210938 -15.734375 17.046875 -15.734375 L 8.34375 -15.734375 Z M 8.34375 -21.25 L 21.21875 -21.25 C 23 -21.25 24.523438 -21.523438 25.796875 -22.078125 C 27.066406 -22.640625 28.039062 -23.441406 28.71875 -24.484375 C 29.394531 -25.535156 29.734375 -26.789062 29.734375 -28.25 C 29.734375 -29.6875 29.398438 -30.898438 28.734375 -31.890625 C 28.078125 -32.890625 27.113281 -33.648438 25.84375 -34.171875 C 24.570312 -34.691406 23.019531 -34.953125 21.1875 -34.953125 L 8.34375 -34.953125 Z M 8.34375 -21.25 "/></g></g></g><g fill="#000000" fill-opacity="1"><g transform="translate(132.143082, 42.119192)"><g><path d="M 8.34375 0 L 2.40625 0 L 2.40625 -40.46875 L 21.984375 -40.46875 C 23.597656 -40.46875 25.101562 -40.28125 26.5 -39.90625 C 27.894531 -39.53125 29.15625 -38.988281 30.28125 -38.28125 C 31.40625 -37.582031 32.367188 -36.742188 33.171875 -35.765625 C 33.984375 -34.785156 34.601562 -33.6875 35.03125 -32.46875 C 35.46875 -31.257812 35.6875 -29.953125 35.6875 -28.546875 C 35.6875 -26.992188 35.421875 -25.578125 34.890625 -24.296875 C 34.359375 -23.023438 33.597656 -21.925781 32.609375 -21 C 31.628906 -20.082031 30.453125 -19.363281 29.078125 -18.84375 C 27.703125 -18.320312 26.164062 -18.039062 24.46875 -18 C 25.957031 -17.875 27.289062 -17.273438 28.46875 -16.203125 C 29.644531 -15.128906 30.671875 -13.609375 31.546875 -11.640625 L 36.765625 0 L 30.25 0 L 25.046875 -11.625 C 24.703125 -12.394531 24.304688 -13.039062 23.859375 -13.5625 C 23.421875 -14.082031 22.894531 -14.503906 22.28125 -14.828125 C 21.664062 -15.148438 20.929688 -15.378906 20.078125 -15.515625 C 19.222656 -15.660156 18.210938 -15.734375 17.046875 -15.734375 L 8.34375 -15.734375 Z M 8.34375 -21.25 L 21.21875 -21.25 C 23 -21.25 24.523438 -21.523438 25.796875 -22.078125 C 27.066406 -22.640625 28.039062 -23.441406 28.71875 -24.484375 C 29.394531 -25.535156 29.734375 -26.789062 29.734375 -28.25 C 29.734375 -29.6875 29.398438 -30.898438 28.734375 -31.890625 C 28.078125 -32.890625 27.113281 -33.648438 25.84375 -34.171875 C 24.570312 -34.691406 23.019531 -34.953125 21.1875 -34.953125 L 8.34375 -34.953125 Z M 8.34375 -21.25 "/></g></g></g><g fill="#000000" fill-opacity="1"><g transform="translate(174.996285, 42.119192)"><g><path d="M 6.65625 0 L 0.5 0 L 15.578125 -40.46875 L 24.484375 -40.46875 L 39.375 0 L 33.0625 0 L 29.375 -10.140625 L 10.40625 -10.140625 Z M 12.390625 -15.515625 L 27.40625 -15.515625 L 19.96875 -35.984375 Z M 12.390625 -15.515625 "/></g></g></g><g fill="#000000" fill-opacity="1"><g transform="translate(219.391538, 42.119192)"><g><path d="M 38.328125 -40.46875 L 38.328125 0 L 28.671875 0 L 8.203125 -36.65625 L 8.203125 0 L 2.40625 0 L 2.40625 -40.46875 L 12.90625 -40.46875 L 32.53125 -5.3125 L 32.53125 -40.46875 Z M 38.328125 -40.46875 "/></g></g></g><g clip-path="url(#ffbe0c3ed1)"><g fill="#000000" fill-opacity="1"><g transform="translate(264.649803, 42.119192)"><g><path d="M 7.921875 -20.234375 C 7.921875 -17.796875 8.21875 -15.617188 8.8125 -13.703125 C 9.414062 -11.785156 10.28125 -10.15625 11.40625 -8.8125 C 12.539062 -7.46875 13.921875 -6.441406 15.546875 -5.734375 C 17.179688 -5.023438 19.019531 -4.671875 21.0625 -4.671875 C 24.394531 -4.671875 27.097656 -5.601562 29.171875 -7.46875 C 31.242188 -9.34375 32.625 -12.085938 33.3125 -15.703125 L 39.265625 -15.703125 C 38.835938 -13.117188 38.101562 -10.804688 37.0625 -8.765625 C 36.03125 -6.722656 34.722656 -4.988281 33.140625 -3.5625 C 31.566406 -2.132812 29.765625 -1.039062 27.734375 -0.28125 C 25.703125 0.46875 23.472656 0.84375 21.046875 0.84375 C 18.785156 0.84375 16.675781 0.515625 14.71875 -0.140625 C 12.769531 -0.796875 11.015625 -1.734375 9.453125 -2.953125 C 7.890625 -4.179688 6.550781 -5.660156 5.4375 -7.390625 C 4.320312 -9.117188 3.46875 -11.0625 2.875 -13.21875 C 2.28125 -15.382812 1.984375 -17.722656 1.984375 -20.234375 C 1.984375 -22.742188 2.28125 -25.078125 2.875 -27.234375 C 3.46875 -29.390625 4.320312 -31.332031 5.4375 -33.0625 C 6.550781 -34.800781 7.890625 -36.28125 9.453125 -37.5 C 11.015625 -38.726562 12.769531 -39.671875 14.71875 -40.328125 C 16.675781 -40.984375 18.785156 -41.3125 21.046875 -41.3125 C 23.472656 -41.3125 25.703125 -40.929688 27.734375 -40.171875 C 29.765625 -39.421875 31.566406 -38.332031 33.140625 -36.90625 C 34.722656 -35.476562 36.03125 -33.742188 37.0625 -31.703125 C 38.101562 -29.660156 38.835938 -27.347656 39.265625 -24.765625 L 33.3125 -24.765625 C 32.625 -28.367188 31.242188 -31.109375 29.171875 -32.984375 C 27.097656 -34.859375 24.394531 -35.796875 21.0625 -35.796875 C 19.019531 -35.796875 17.179688 -35.441406 15.546875 -34.734375 C 13.921875 -34.023438 12.539062 -33 11.40625 -31.65625 C 10.28125 -30.3125 9.414062 -28.675781 8.8125 -26.75 C 8.21875 -24.832031 7.921875 -22.660156 7.921875 -20.234375 Z M 7.921875 -20.234375 "/></g></g></g></g><g fill="#000000" fill-opacity="1"><g transform="translate(308.012184, 42.119192)"><g><path d="M 6.65625 0 L 0.5 0 L 15.578125 -40.46875 L 24.484375 -40.46875 L 39.375 0 L 33.0625 0 L 29.375 -10.140625 L 10.40625 -10.140625 Z M 12.390625 -15.515625 L 27.40625 -15.515625 L 19.96875 -35.984375 Z M 12.390625 -15.515625 "/></g></g></g><g clip-path="url(#b80cd1af41)"><g fill="#000000" fill-opacity="1"><g transform="translate(351.417083, 42.119192)"><g><path d="M 18.171875 -41.3125 C 20.578125 -41.3125 22.757812 -41.007812 24.71875 -40.40625 C 26.675781 -39.8125 28.351562 -38.945312 29.75 -37.8125 C 31.15625 -36.6875 32.234375 -35.316406 32.984375 -33.703125 C 33.734375 -32.097656 34.109375 -30.285156 34.109375 -28.265625 L 28.3125 -28.265625 C 28.3125 -29.441406 28.066406 -30.5 27.578125 -31.4375 C 27.085938 -32.382812 26.390625 -33.191406 25.484375 -33.859375 C 24.578125 -34.523438 23.5 -35.035156 22.25 -35.390625 C 21.007812 -35.753906 19.632812 -35.9375 18.125 -35.9375 C 17.113281 -35.9375 16.109375 -35.847656 15.109375 -35.671875 C 14.117188 -35.503906 13.179688 -35.242188 12.296875 -34.890625 C 11.421875 -34.546875 10.640625 -34.101562 9.953125 -33.5625 C 9.273438 -33.03125 8.742188 -32.398438 8.359375 -31.671875 C 7.972656 -30.953125 7.78125 -30.125 7.78125 -29.1875 C 7.78125 -28.375 7.9375 -27.679688 8.25 -27.109375 C 8.5625 -26.546875 9.015625 -26.070312 9.609375 -25.6875 C 10.210938 -25.300781 10.941406 -24.976562 11.796875 -24.71875 C 12.648438 -24.457031 13.617188 -24.226562 14.703125 -24.03125 C 15.785156 -23.84375 16.96875 -23.648438 18.25 -23.453125 L 20.34375 -23.140625 C 21.320312 -22.992188 22.320312 -22.832031 23.34375 -22.65625 C 24.363281 -22.476562 25.367188 -22.265625 26.359375 -22.015625 C 27.359375 -21.765625 28.3125 -21.445312 29.21875 -21.0625 C 30.132812 -20.6875 30.976562 -20.226562 31.75 -19.6875 C 32.519531 -19.144531 33.191406 -18.5 33.765625 -17.75 C 34.335938 -17 34.78125 -16.117188 35.09375 -15.109375 C 35.414062 -14.097656 35.578125 -12.9375 35.578125 -11.625 C 35.578125 -9.945312 35.3125 -8.4375 34.78125 -7.09375 C 34.25 -5.757812 33.484375 -4.59375 32.484375 -3.59375 C 31.484375 -2.601562 30.285156 -1.773438 28.890625 -1.109375 C 27.503906 -0.453125 25.945312 0.0351562 24.21875 0.359375 C 22.5 0.679688 20.644531 0.84375 18.65625 0.84375 C 15.945312 0.84375 13.519531 0.546875 11.375 -0.046875 C 9.226562 -0.648438 7.398438 -1.523438 5.890625 -2.671875 C 4.390625 -3.828125 3.242188 -5.234375 2.453125 -6.890625 C 1.660156 -8.546875 1.265625 -10.4375 1.265625 -12.5625 L 7.078125 -12.5625 C 7.078125 -11.3125 7.34375 -10.1875 7.875 -9.1875 C 8.40625 -8.195312 9.171875 -7.351562 10.171875 -6.65625 C 11.179688 -5.957031 12.394531 -5.425781 13.8125 -5.0625 C 15.226562 -4.707031 16.816406 -4.53125 18.578125 -4.53125 C 19.796875 -4.53125 20.957031 -4.617188 22.0625 -4.796875 C 23.175781 -4.972656 24.203125 -5.25 25.140625 -5.625 C 26.078125 -6 26.890625 -6.46875 27.578125 -7.03125 C 28.273438 -7.601562 28.8125 -8.28125 29.1875 -9.0625 C 29.570312 -9.851562 29.765625 -10.75 29.765625 -11.75 C 29.765625 -12.644531 29.609375 -13.398438 29.296875 -14.015625 C 28.984375 -14.628906 28.53125 -15.140625 27.9375 -15.546875 C 27.351562 -15.953125 26.65625 -16.285156 25.84375 -16.546875 C 25.03125 -16.816406 24.117188 -17.039062 23.109375 -17.21875 C 22.109375 -17.40625 21.03125 -17.585938 19.875 -17.765625 L 17.25 -18.171875 C 16.257812 -18.316406 15.25 -18.476562 14.21875 -18.65625 C 13.195312 -18.832031 12.1875 -19.039062 11.1875 -19.28125 C 10.1875 -19.519531 9.234375 -19.816406 8.328125 -20.171875 C 7.421875 -20.535156 6.582031 -20.96875 5.8125 -21.46875 C 5.039062 -21.976562 4.363281 -22.585938 3.78125 -23.296875 C 3.207031 -24.003906 2.765625 -24.832031 2.453125 -25.78125 C 2.140625 -26.726562 1.984375 -27.820312 1.984375 -29.0625 C 1.984375 -30.6875 2.257812 -32.148438 2.8125 -33.453125 C 3.363281 -34.753906 4.140625 -35.894531 5.140625 -36.875 C 6.140625 -37.851562 7.3125 -38.671875 8.65625 -39.328125 C 10.007812 -39.992188 11.488281 -40.488281 13.09375 -40.8125 C 14.707031 -41.144531 16.398438 -41.3125 18.171875 -41.3125 Z M 18.171875 -41.3125 "/></g></g></g></g><g fill="#000000" fill-opacity="1"><g transform="translate(0.000000000000085265, 177.002829)"><g><path d="M 4.921875 -115.421875 L 60.09375 -115.421875 C 64.613281 -115.421875 68.867188 -114.988281 72.859375 -114.125 C 76.859375 -113.257812 80.535156 -112.019531 83.890625 -110.40625 C 87.253906 -108.789062 90.273438 -106.832031 92.953125 -104.53125 C 95.628906 -102.238281 97.898438 -99.640625 99.765625 -96.734375 C 101.640625 -93.828125 103.070312 -90.648438 104.0625 -87.203125 C 105.0625 -83.765625 105.5625 -80.109375 105.5625 -76.234375 C 105.5625 -72.359375 105.0625 -68.691406 104.0625 -65.234375 C 103.070312 -61.773438 101.640625 -58.59375 99.765625 -55.6875 C 97.898438 -52.78125 95.625 -50.171875 92.9375 -47.859375 C 90.25 -45.546875 87.222656 -43.582031 83.859375 -41.96875 C 80.492188 -40.351562 76.8125 -39.113281 72.8125 -38.25 C 68.820312 -37.394531 64.582031 -36.96875 60.09375 -36.96875 L 34.703125 -36.96875 L 34.703125 0 L 4.921875 0 Z M 58.71875 -60.6875 C 61.40625 -60.6875 63.804688 -61.035156 65.921875 -61.734375 C 68.035156 -62.441406 69.820312 -63.457031 71.28125 -64.78125 C 72.75 -66.113281 73.863281 -67.742188 74.625 -69.671875 C 75.394531 -71.597656 75.78125 -73.785156 75.78125 -76.234375 C 75.78125 -78.648438 75.394531 -80.820312 74.625 -82.75 C 73.863281 -84.675781 72.753906 -86.296875 71.296875 -87.609375 C 69.847656 -88.929688 68.070312 -89.941406 65.96875 -90.640625 C 63.875 -91.335938 61.5 -91.6875 58.84375 -91.6875 L 34.703125 -91.6875 L 34.703125 -60.6875 Z M 58.71875 -60.6875 "/></g></g></g><g fill="#000000" fill-opacity="1"><g transform="translate(112.90453, 177.002829)"><g><path d="M 4.921875 0 L 4.921875 -115.453125 L 62.59375 -115.453125 C 69.445312 -115.453125 75.546875 -114.640625 80.890625 -113.015625 C 86.234375 -111.390625 90.738281 -109.054688 94.40625 -106.015625 C 98.082031 -102.972656 100.875 -99.265625 102.78125 -94.890625 C 104.695312 -90.523438 105.65625 -85.597656 105.65625 -80.109375 C 105.65625 -75.347656 104.898438 -71.019531 103.390625 -67.125 C 101.878906 -63.238281 99.734375 -59.90625 96.953125 -57.125 C 94.171875 -54.34375 90.804688 -52.15625 86.859375 -50.5625 C 82.921875 -48.976562 78.503906 -48.101562 73.609375 -47.9375 C 78.335938 -47.613281 82.503906 -45.9375 86.109375 -42.90625 C 89.722656 -39.882812 92.820312 -35.492188 95.40625 -29.734375 L 108.765625 0 L 75.625 0 L 62.03125 -29.703125 C 60.976562 -32.015625 59.976562 -33.914062 59.03125 -35.40625 C 58.09375 -36.90625 57.078125 -38.082031 55.984375 -38.9375 C 54.898438 -39.800781 53.675781 -40.398438 52.3125 -40.734375 C 50.957031 -41.078125 49.328125 -41.25 47.421875 -41.25 L 34.703125 -41.25 L 34.703125 0 Z M 59.328125 -64.25 C 61.960938 -64.25 64.300781 -64.554688 66.34375 -65.171875 C 68.382812 -65.796875 70.101562 -66.695312 71.5 -67.875 C 72.90625 -69.0625 73.976562 -70.519531 74.71875 -72.25 C 75.457031 -73.988281 75.828125 -75.960938 75.828125 -78.171875 C 75.828125 -82.578125 74.40625 -85.9375 71.5625 -88.25 C 68.726562 -90.570312 64.632812 -91.734375 59.28125 -91.734375 L 34.703125 -91.734375 L 34.703125 -64.25 Z M 59.328125 -64.25 "/></g></g></g><g fill="#000000" fill-opacity="1"><g transform="translate(228.996932, 177.002829)"><g><path d="M 85.546875 -115.421875 L 85.546875 -90.71875 L 34.703125 -90.71875 L 34.703125 -69.125 L 80.953125 -69.125 L 80.953125 -46.125 L 34.703125 -46.125 L 34.703125 -24.703125 L 86.921875 -24.703125 L 86.921875 0 L 4.921875 0 L 4.921875 -115.421875 Z M 85.546875 -115.421875 "/></g></g></g><g fill="#000000" fill-opacity="1"><g transform="translate(323.218667, 177.002829)"><g><path d="M 143.828125 -115.421875 L 143.828125 0 L 114.046875 0 L 114.046875 -90.4375 L 88.546875 0 L 58.671875 0 L 33.328125 -90.484375 L 33.328125 0 L 4.921875 0 L 4.921875 -115.421875 L 51.890625 -115.421875 L 75.1875 -32.203125 L 98.59375 -115.421875 Z M 143.828125 -115.421875 "/></g></g></g><g fill="#000000" fill-opacity="1"><g transform="translate(476.7978, 177.002829)"><g><path d="M 34.703125 0 L 4.921875 0 L 4.921875 -115.421875 L 34.703125 -115.421875 Z M 34.703125 0 "/></g></g></g><g fill="#000000" fill-opacity="1"><g transform="translate(520.458821, 177.002829)"><g><path d="M 4.921875 -115.421875 L 34.703125 -115.421875 L 34.703125 -48.671875 C 34.703125 -44.097656 35.160156 -40.160156 36.078125 -36.859375 C 36.992188 -33.566406 38.34375 -30.859375 40.125 -28.734375 C 41.914062 -26.609375 44.128906 -25.039062 46.765625 -24.03125 C 49.410156 -23.019531 52.441406 -22.515625 55.859375 -22.515625 C 59.296875 -22.515625 62.332031 -23.019531 64.96875 -24.03125 C 67.601562 -25.039062 69.804688 -26.609375 71.578125 -28.734375 C 73.359375 -30.859375 74.707031 -33.566406 75.625 -36.859375 C 76.539062 -40.160156 77 -44.097656 77 -48.671875 L 77 -115.421875 L 106.78125 -115.421875 L 106.78125 -46 C 106.78125 -38.226562 105.53125 -31.332031 103.03125 -25.3125 C 100.53125 -19.300781 97.023438 -14.238281 92.515625 -10.125 C 88.003906 -6.007812 82.632812 -2.890625 76.40625 -0.765625 C 70.1875 1.359375 63.335938 2.421875 55.859375 2.421875 C 50.878906 2.421875 46.164062 1.941406 41.71875 0.984375 C 37.28125 0.0351562 33.171875 -1.363281 29.390625 -3.21875 C 25.617188 -5.082031 22.222656 -7.382812 19.203125 -10.125 C 16.191406 -12.875 13.625 -16.039062 11.5 -19.625 C 9.375 -23.21875 7.742188 -27.210938 6.609375 -31.609375 C 5.484375 -36.015625 4.921875 -40.8125 4.921875 -46 Z M 4.921875 -115.421875 "/></g></g></g><g fill="#000000" fill-opacity="1"><g transform="translate(636.188022, 177.002829)"><g><path d="M 143.828125 -115.421875 L 143.828125 0 L 114.046875 0 L 114.046875 -90.4375 L 88.546875 0 L 58.671875 0 L 33.328125 -90.484375 L 33.328125 0 L 4.921875 0 L 4.921875 -115.421875 L 51.890625 -115.421875 L 75.1875 -32.203125 L 98.59375 -115.421875 Z M 143.828125 -115.421875 "/></g></g></g><path stroke-linecap="butt" transform="matrix(0.758002, 0, 0, 0.758002, 406.875391, 20.999985)" fill="none" stroke-linejoin="miter" d="M -0.000515892 3.499146 L 490.098749 3.499146 " stroke="#000000" stroke-width="7" stroke-opacity="1" stroke-miterlimit="4"/><g transform="matrix(1, 0, 0, 1, 785, 54)"><g clip-path="url(#30e6b1dead)"><g fill="#000000" fill-opacity="1"><g transform="translate(0.279126, 21.420689)"><g><path d="M 12.34375 -20.421875 C 13.40625 -20.421875 14.421875 -20.289062 15.390625 -20.03125 C 16.359375 -19.769531 17.257812 -19.394531 18.09375 -18.90625 C 18.9375 -18.425781 19.691406 -17.847656 20.359375 -17.171875 C 21.035156 -16.503906 21.613281 -15.75 22.09375 -14.90625 C 22.582031 -14.070312 22.953125 -13.171875 23.203125 -12.203125 C 23.460938 -11.242188 23.59375 -10.226562 23.59375 -9.15625 C 23.59375 -8.082031 23.460938 -7.050781 23.203125 -6.0625 C 22.941406 -5.082031 22.566406 -4.164062 22.078125 -3.3125 C 21.585938 -2.46875 21 -1.703125 20.3125 -1.015625 C 19.625 -0.328125 18.859375 0.257812 18.015625 0.75 C 17.171875 1.25 16.257812 1.628906 15.28125 1.890625 C 14.300781 2.160156 13.28125 2.296875 12.21875 2.296875 C 11.15625 2.296875 10.132812 2.160156 9.15625 1.890625 C 8.1875 1.628906 7.28125 1.253906 6.4375 0.765625 C 5.601562 0.285156 4.84375 -0.289062 4.15625 -0.96875 C 3.476562 -1.65625 2.894531 -2.421875 2.40625 -3.265625 C 1.925781 -4.109375 1.550781 -5.015625 1.28125 -5.984375 C 1.019531 -6.953125 0.890625 -7.972656 0.890625 -9.046875 C 0.890625 -10.109375 1.019531 -11.125 1.28125 -12.09375 C 1.550781 -13.070312 1.929688 -13.984375 2.421875 -14.828125 C 2.921875 -15.679688 3.515625 -16.445312 4.203125 -17.125 C 4.890625 -17.8125 5.65625 -18.398438 6.5 -18.890625 C 7.351562 -19.378906 8.269531 -19.753906 9.25 -20.015625 C 10.238281 -20.285156 11.269531 -20.421875 12.34375 -20.421875 Z M 12.328125 -18.421875 C 11.441406 -18.421875 10.597656 -18.3125 9.796875 -18.09375 C 8.992188 -17.882812 8.25 -17.582031 7.5625 -17.1875 C 6.882812 -16.800781 6.269531 -16.328125 5.71875 -15.765625 C 5.164062 -15.203125 4.695312 -14.570312 4.3125 -13.875 C 3.925781 -13.1875 3.628906 -12.4375 3.421875 -11.625 C 3.210938 -10.8125 3.109375 -9.957031 3.109375 -9.0625 C 3.109375 -8.164062 3.207031 -7.3125 3.40625 -6.5 C 3.613281 -5.6875 3.910156 -4.929688 4.296875 -4.234375 C 4.679688 -3.546875 5.144531 -2.921875 5.6875 -2.359375 C 6.226562 -1.804688 6.832031 -1.332031 7.5 -0.9375 C 8.175781 -0.539062 8.90625 -0.234375 9.6875 -0.015625 C 10.476562 0.191406 11.304688 0.296875 12.171875 0.296875 C 13.054688 0.296875 13.894531 0.1875 14.6875 -0.03125 C 15.476562 -0.25 16.210938 -0.554688 16.890625 -0.953125 C 17.578125 -1.359375 18.195312 -1.84375 18.75 -2.40625 C 19.300781 -2.976562 19.769531 -3.617188 20.15625 -4.328125 C 20.550781 -5.035156 20.851562 -5.800781 21.0625 -6.625 C 21.28125 -7.445312 21.390625 -8.3125 21.390625 -9.21875 C 21.390625 -10.113281 21.285156 -10.957031 21.078125 -11.75 C 20.878906 -12.550781 20.585938 -13.289062 20.203125 -13.96875 C 19.828125 -14.65625 19.367188 -15.269531 18.828125 -15.8125 C 18.285156 -16.363281 17.675781 -16.832031 17 -17.21875 C 16.332031 -17.601562 15.601562 -17.898438 14.8125 -18.109375 C 14.03125 -18.316406 13.203125 -18.421875 12.328125 -18.421875 Z M 10.234375 -3.71875 L 8.046875 -3.71875 L 8.046875 -14.1875 L 13.3125 -14.1875 C 13.851562 -14.1875 14.347656 -14.109375 14.796875 -13.953125 C 15.242188 -13.804688 15.628906 -13.597656 15.953125 -13.328125 C 16.285156 -13.054688 16.539062 -12.726562 16.71875 -12.34375 C 16.90625 -11.96875 17 -11.554688 17 -11.109375 C 17 -10.566406 16.875 -10.09375 16.625 -9.6875 C 16.382812 -9.289062 16.046875 -8.976562 15.609375 -8.75 C 15.179688 -8.519531 14.671875 -8.394531 14.078125 -8.375 C 14.835938 -8.3125 15.453125 -7.765625 15.921875 -6.734375 L 17.28125 -3.71875 L 14.921875 -3.71875 L 13.578125 -6.484375 C 13.453125 -6.734375 13.316406 -6.925781 13.171875 -7.0625 C 13.023438 -7.207031 12.835938 -7.304688 12.609375 -7.359375 C 12.390625 -7.421875 12.113281 -7.453125 11.78125 -7.453125 L 10.234375 -7.453125 Z M 10.234375 -9.546875 L 12.703125 -9.546875 C 13.359375 -9.546875 13.867188 -9.660156 14.234375 -9.890625 C 14.609375 -10.117188 14.796875 -10.441406 14.796875 -10.859375 C 14.796875 -11.253906 14.613281 -11.5625 14.25 -11.78125 C 13.882812 -12 13.363281 -12.109375 12.6875 -12.109375 L 10.234375 -12.109375 Z M 10.234375 -9.546875 "/></g></g></g></g></g></g></g></svg>